<svg width="24" height="24" viewBox="0 0 24 24" fill="none" xmlns="http://www.w3.org/2000/svg">
<path d="M21.0338 9.46875C21.1602 9.4699 21.2848 9.43755 21.3947 9.375C21.4753 9.32968 21.5461 9.26873 21.6029 9.19572C21.6597 9.12271 21.7014 9.03911 21.7255 8.9498C21.7495 8.8605 21.7556 8.76728 21.7432 8.67562C21.7309 8.58395 21.7003 8.49567 21.6534 8.41594C20.7497 6.9075 18 3.38672 12 3.38672C9.39985 3.38672 7.11938 4.06969 5.22516 5.41594C3.66609 6.52078 2.79234 7.77141 2.37609 8.37375C2.3233 8.44967 2.28623 8.53539 2.26707 8.62586C2.2479 8.71633 2.24703 8.80972 2.2645 8.90052C2.28197 8.99133 2.31743 9.07773 2.3688 9.15463C2.42017 9.23152 2.4864 9.29737 2.56359 9.34828C2.72137 9.45257 2.91355 9.49133 3.09941 9.45633C3.28527 9.42132 3.45019 9.31532 3.55922 9.16078C4.3125 8.0775 6.60938 4.78125 12 4.78125C17.2617 4.78125 19.6406 7.81453 20.4155 9.11531C20.4777 9.22394 20.5679 9.31397 20.6766 9.3761C20.7853 9.43824 20.9086 9.47022 21.0338 9.46875Z" fill="black"/>
<path d="M8.97703 23.2499C9.03685 23.2506 9.09653 23.2439 9.15468 23.2298C13.507 22.1516 15.1322 17.8007 15.1983 17.6198L15.2086 17.5799C15.2442 17.4543 16.1175 14.4707 14.7769 12.7232C14.1623 11.9263 13.2277 11.5176 11.9934 11.5176C10.8459 11.5176 10.0181 11.8743 9.44906 12.6126C8.98031 13.2154 8.7928 13.9588 8.6114 14.6751C8.2303 16.1666 7.95515 16.9499 6.37124 17.0305C5.67562 17.0657 5.21859 16.6588 4.95937 16.3124C4.25858 15.3679 4.13671 13.828 4.66499 12.4687C5.34374 10.7141 7.75265 7.40616 12 7.40616C13.8131 7.40616 15.4791 7.98882 16.815 9.08382C17.9208 9.99085 18.7969 11.2715 19.2187 12.5877C20.0011 15.0383 18.975 18.8905 18.9652 18.9257C18.9412 19.0153 18.9354 19.1089 18.9482 19.2008C18.961 19.2927 18.992 19.3812 19.0395 19.4609C19.087 19.5406 19.15 19.61 19.2247 19.665C19.2994 19.72 19.3844 19.7595 19.4747 19.7812C19.657 19.8296 19.851 19.8048 20.0153 19.7119C20.1795 19.619 20.3007 19.4655 20.3531 19.2843C20.4 19.1085 21.4959 14.9999 20.5922 12.1677C19.6078 9.09882 16.5698 6.00507 11.9986 6.00507C9.88593 6.00507 7.88999 6.72319 6.22405 8.07929C4.93405 9.13398 3.8803 10.5505 3.32905 11.9666C2.62827 13.7746 2.81624 15.8038 3.80671 17.1294C4.46671 18.0135 5.40655 18.4757 6.44765 18.4255C9.15984 18.2896 9.64734 16.3963 10.0027 15.0154C10.3683 13.5988 10.6022 12.9158 11.9986 12.9158C12.7655 12.9158 13.3041 13.1268 13.6392 13.5637C14.0962 14.1613 14.1319 15.0955 14.0812 15.7733C14.048 16.2456 13.9679 16.7134 13.8422 17.1698C13.7306 17.451 12.278 21.0135 8.7989 21.8755C8.70898 21.8968 8.62418 21.9358 8.54945 21.9902C8.47471 22.0445 8.41152 22.1132 8.36355 22.1922C8.31557 22.2711 8.28377 22.3589 8.26999 22.4502C8.25621 22.5416 8.26072 22.6348 8.28327 22.7244C8.32573 22.8757 8.41651 23.009 8.54177 23.1039C8.66703 23.1987 8.81989 23.25 8.97703 23.2499Z" fill="black"/>
<path d="M14.5636 22.9286C14.6611 22.9288 14.7577 22.9094 14.8476 22.8714C14.9375 22.8335 15.0188 22.7779 15.0867 22.7078C16.8286 20.8797 17.8139 18.8355 18.1847 16.2794V16.2658C18.3928 14.5736 18.0881 12.1778 16.5951 10.5306C15.4931 9.31517 13.9439 8.69736 11.9986 8.69736C9.69794 8.69736 7.88997 9.76705 6.76263 11.786C5.94466 13.2527 5.78247 14.7142 5.77825 14.7742C5.76968 14.8667 5.77943 14.96 5.80697 15.0488C5.8345 15.1375 5.87926 15.2199 5.9387 15.2913C5.99813 15.3628 6.07107 15.4217 6.15333 15.4649C6.2356 15.5081 6.32557 15.5346 6.4181 15.543C6.6048 15.5632 6.79198 15.5093 6.93922 15.3927C7.08647 15.2762 7.18198 15.1064 7.20513 14.92C7.3286 14.0431 7.61239 13.1963 8.04232 12.422C8.91607 10.8803 10.2454 10.0966 12.0037 10.0966C13.5225 10.0966 14.7108 10.5536 15.5283 11.456C16.7067 12.7567 16.9345 14.7606 16.7728 16.0863C16.4479 18.3466 15.5793 20.1447 14.0456 21.7516C13.9816 21.8182 13.9316 21.897 13.8987 21.9832C13.8657 22.0695 13.8504 22.1616 13.8537 22.2539C13.8571 22.3462 13.8789 22.4369 13.918 22.5206C13.9571 22.6043 14.0126 22.6793 14.0812 22.7411C14.2134 22.8609 14.3852 22.9277 14.5636 22.9286Z" fill="black"/>
<path d="M6.53902 20.915C8.06246 20.915 9.35762 20.4931 10.394 19.6545C12.4762 17.9768 12.7096 15.2445 12.72 15.1292C12.7346 14.9399 12.6735 14.7525 12.55 14.6083C12.4266 14.4641 12.2509 14.3749 12.0616 14.3602C11.8723 14.3455 11.685 14.4066 11.5408 14.5301C11.3965 14.6536 11.3073 14.8293 11.2926 15.0185C11.2875 15.0589 11.0793 17.2939 9.47434 18.581C8.52465 19.3395 7.25527 19.6404 5.69106 19.4646C5.50411 19.442 5.31578 19.4942 5.16725 19.61C5.01872 19.7258 4.92206 19.8956 4.8984 20.0825C4.88816 20.1747 4.89641 20.2682 4.92265 20.3572C4.9489 20.4463 4.99262 20.5292 5.05126 20.6012C5.10991 20.6732 5.1823 20.7328 5.26422 20.7766C5.34614 20.8203 5.43595 20.8472 5.5284 20.8559C5.86386 20.895 6.20129 20.9148 6.53902 20.915Z" fill="black"/>
<path d="M5.33528 2.28703C5.92965 1.90031 8.03716 0.75 12 0.75C16.1597 0.75 18.2723 2.02078 18.7397 2.34375C18.7705 2.3627 18.7994 2.38468 18.8259 2.40937C18.8287 2.41208 18.8323 2.41373 18.8362 2.41406C18.9109 2.47922 18.9707 2.55954 19.0119 2.64966C19.053 2.73979 19.0745 2.83765 19.0748 2.93672C19.0735 3.02959 19.0539 3.12129 19.0172 3.20657C18.9804 3.29185 18.9271 3.36904 18.8604 3.4337C18.7938 3.49837 18.715 3.54924 18.6286 3.58341C18.5423 3.61757 18.45 3.63436 18.3572 3.63281C18.2083 3.63271 18.0631 3.58708 17.9409 3.50203C17.9208 3.48703 16.1025 2.15109 11.9986 2.15109C7.89465 2.15109 6.06653 3.48234 6.04684 3.49219C5.92204 3.58473 5.77049 3.6341 5.61512 3.63281C5.52218 3.63424 5.42987 3.61729 5.3435 3.58295C5.25712 3.54861 5.17838 3.49755 5.11178 3.4327C5.04519 3.36785 4.99206 3.29049 4.95544 3.20505C4.91883 3.11962 4.89944 3.02779 4.8984 2.93484C4.89836 2.79562 4.93993 2.65956 5.01778 2.54413C5.09562 2.4287 5.20619 2.33917 5.33528 2.28703Z" fill="black"/>
</svg>
