<svg width="24" height="24" viewBox="0 0 24 24" fill="none" xmlns="http://www.w3.org/2000/svg">
<path d="M6.02222 10.6556C7.62222 13.8 10.2 16.3778 13.3444 17.9778L15.7889 15.5333C16.1 15.2222 16.5333 15.1333 16.9222 15.2556C18.1667 15.6667 19.5 15.8889 20.8889 15.8889C21.1836 15.8889 21.4662 16.006 21.6746 16.2143C21.8829 16.4227 22 16.7053 22 17V20.8889C22 21.1836 21.8829 21.4662 21.6746 21.6746C21.4662 21.8829 21.1836 22 20.8889 22C15.8792 22 11.0748 20.0099 7.53243 16.4676C3.99007 12.9252 2 8.12076 2 3.11111C2 2.81643 2.11706 2.53381 2.32544 2.32544C2.53381 2.11706 2.81643 2 3.11111 2H7C7.29469 2 7.5773 2.11706 7.78567 2.32544C7.99405 2.53381 8.11111 2.81643 8.11111 3.11111C8.11111 4.5 8.33333 5.83333 8.74444 7.07778C8.86667 7.46667 8.77778 7.9 8.46667 8.21111L6.02222 10.6556Z" fill="black"/>
</svg>
