<svg width="24" height="24" viewBox="0 0 24 24" fill="none" xmlns="http://www.w3.org/2000/svg">
<path d="M12 6C12.7735 6 13.5154 6.30517 14.0624 6.84838C14.6094 7.39159 14.9167 8.12834 14.9167 8.89655C14.9167 9.66477 14.6094 10.4015 14.0624 10.9447C13.5154 11.4879 12.7735 11.7931 12 11.7931C11.2265 11.7931 10.4846 11.4879 9.93761 10.9447C9.39062 10.4015 9.08333 9.66477 9.08333 8.89655C9.08333 8.12834 9.39062 7.39159 9.93761 6.84838C10.4846 6.30517 11.2265 6 12 6V6ZM6.16667 8.06897C6.63333 8.06897 7.06667 8.1931 7.44167 8.41655C7.31667 9.6 7.66667 10.7752 8.38333 11.6938C7.96667 12.4883 7.13333 13.0345 6.16667 13.0345C5.50363 13.0345 4.86774 12.7729 4.3989 12.3073C3.93006 11.8417 3.66667 11.2102 3.66667 10.5517C3.66667 9.89326 3.93006 9.26176 4.3989 8.79615C4.86774 8.33054 5.50363 8.06897 6.16667 8.06897V8.06897ZM17.8333 8.06897C18.4964 8.06897 19.1323 8.33054 19.6011 8.79615C20.0699 9.26176 20.3333 9.89326 20.3333 10.5517C20.3333 11.2102 20.0699 11.8417 19.6011 12.3073C19.1323 12.7729 18.4964 13.0345 17.8333 13.0345C16.8667 13.0345 16.0333 12.4883 15.6167 11.6938C16.3432 10.7623 16.6805 9.58858 16.5583 8.41655C16.9333 8.1931 17.3667 8.06897 17.8333 8.06897V8.06897ZM6.58333 16.5517C6.58333 14.8386 9.00833 13.4483 12 13.4483C14.9917 13.4483 17.4167 14.8386 17.4167 16.5517V18H6.58333V16.5517ZM2 18V16.7586C2 15.6083 3.575 14.64 5.70833 14.3586C5.21667 14.9214 4.91667 15.6993 4.91667 16.5517V18H2ZM22 18H19.0833V16.5517C19.0833 15.6993 18.7833 14.9214 18.2917 14.3586C20.425 14.64 22 15.6083 22 16.7586V18Z" fill="black"/>
</svg>
