<svg width="24" height="24" viewBox="0 0 24 24" fill="none" xmlns="http://www.w3.org/2000/svg">
<path d="M13.6667 13.3125V16.5625H10.3333V13.3125H7.83333L12 9.25L16.1667 13.3125H13.6667ZM18.125 10.8994C17.8434 9.51777 17.0789 8.2742 15.962 7.38075C14.845 6.4873 13.4447 5.99931 12 6C9.59167 6 7.5 7.3325 6.45833 9.27438C5.23282 9.40531 4.10003 9.97279 3.27726 10.868C2.45448 11.7631 1.99965 12.923 2 14.125C2 15.4179 2.52678 16.6579 3.46447 17.5721C4.40215 18.4864 5.67392 19 7 19H17.8333C18.3805 19 18.9223 18.8949 19.4278 18.6908C19.9334 18.4866 20.3927 18.1874 20.7796 17.8101C21.1665 17.4329 21.4734 16.985 21.6828 16.4922C21.8922 15.9993 22 15.471 22 14.9375C22 12.7925 20.2917 11.0538 18.125 10.8994V10.8994Z" fill="black"/>
</svg>
