<svg width="16" height="16" viewBox="0 0 16 16" fill="none" xmlns="http://www.w3.org/2000/svg">
<path d="M14.6666 4.89784C14.6679 5.36613 14.5763 5.83002 14.3971 6.26267C14.2179 6.69532 13.9547 7.08812 13.6226 7.41836L11.6839 9.35724C11.0149 10.0247 10.1085 10.3995 9.16343 10.3995C8.2184 10.3995 7.31195 10.0247 6.64292 9.35724C6.54006 9.25439 6.48228 9.1149 6.48227 8.96945C6.48226 8.824 6.54004 8.68451 6.64288 8.58165C6.74573 8.4788 6.88522 8.42101 7.03067 8.421C7.17612 8.421 7.31562 8.47877 7.41847 8.58162C7.88162 9.04374 8.50917 9.30328 9.16343 9.30328C9.8177 9.30328 10.4452 9.04374 10.9084 8.58162L12.8471 6.64273C13.3036 6.17867 13.5583 5.553 13.5557 4.902C13.553 4.25101 13.2932 3.62743 12.8329 3.1671C12.3726 2.70677 11.749 2.44699 11.098 2.44434C10.447 2.44169 9.82135 2.69638 9.35729 3.15295L8.00003 4.51013C7.9491 4.56106 7.88865 4.60145 7.82211 4.62901C7.75557 4.65657 7.68425 4.67075 7.61223 4.67074C7.54021 4.67074 7.4689 4.65655 7.40236 4.62899C7.33582 4.60143 7.27537 4.56103 7.22445 4.5101C7.17352 4.45917 7.13313 4.39871 7.10557 4.33217C7.07801 4.26563 7.06383 4.19432 7.06383 4.1223C7.06384 4.05028 7.07802 3.97896 7.10559 3.91243C7.13315 3.84589 7.17355 3.78543 7.22448 3.73451L8.58166 2.37739C9.08017 1.87888 9.71531 1.53938 10.4068 1.40184C11.0982 1.2643 11.8149 1.33489 12.4663 1.60468C13.1176 1.87447 13.6743 2.33135 14.066 2.91755C14.4576 3.50374 14.6667 4.19291 14.6667 4.89791L14.6666 4.89784ZM8.00003 11.4898L6.64278 12.847C6.41432 13.0792 6.14214 13.2639 5.84195 13.3904C5.54175 13.5169 5.21948 13.5827 4.89373 13.5841C4.56797 13.5854 4.24518 13.5222 3.94396 13.3981C3.64275 13.2741 3.36907 13.0916 3.13873 12.8613C2.90838 12.6309 2.72592 12.3573 2.60187 12.0561C2.47782 11.7548 2.41464 11.432 2.41597 11.1063C2.41729 10.7805 2.4831 10.4583 2.6096 10.1581C2.7361 9.85788 2.92078 9.5857 3.153 9.35724L5.09174 7.41836C5.55487 6.9562 6.18243 6.69664 6.8367 6.69664C7.49098 6.69664 8.11854 6.9562 8.58166 7.41836C8.63259 7.46928 8.69305 7.50967 8.75959 7.53723C8.82613 7.56479 8.89744 7.57897 8.96946 7.57897C9.04148 7.57896 9.1128 7.56478 9.17934 7.53721C9.24587 7.50965 9.30633 7.46925 9.35725 7.41832C9.40817 7.36739 9.44857 7.30693 9.47613 7.24039C9.50368 7.17386 9.51787 7.10254 9.51786 7.03052C9.51786 6.9585 9.50367 6.88719 9.47611 6.82065C9.44854 6.75411 9.40814 6.69366 9.35722 6.64273C8.68818 5.9753 7.78173 5.60047 6.8367 5.60047C5.89167 5.60047 4.98523 5.9753 4.31619 6.64273L2.37737 8.58162C1.70889 9.2501 1.33334 10.1568 1.33334 11.1021C1.33334 12.0475 1.70889 12.9542 2.37737 13.6226C3.04586 14.2911 3.95251 14.6667 4.89789 14.6667C5.84326 14.6667 6.74992 14.2911 7.4184 13.6226L8.77559 12.2654C8.87739 12.1623 8.93428 12.0232 8.93384 11.8783C8.93339 11.7335 8.87564 11.5947 8.77321 11.4922C8.67077 11.3898 8.53196 11.3321 8.3871 11.3316C8.24223 11.3312 8.10308 11.3881 8.00003 11.4899V11.4898Z" fill="black"/>
</svg>
