<svg width="24" height="24" viewBox="0 0 24 24" fill="none" xmlns="http://www.w3.org/2000/svg">
<path d="M11.0909 19.3762L18.5455 11.9571C19 11.5048 19.5455 11.2333 20.1818 11.2333C20.8182 11.2333 21.3636 11.5048 21.8182 11.9571L22 12.1381V4.80952C22 3.81429 21.1818 3 20.1818 3H3.81818C2.81818 3 2 3.81429 2 4.80952V19.2857C2 20.281 2.81818 21.0952 3.81818 21.0952H11.0909V19.3762ZM3.81818 4.80952H20.1818V7.52381H3.81818V4.80952ZM20.1818 13.0429C20.0909 13.0429 19.9091 13.1333 19.8182 13.2238L18.9091 14.1286L20.8182 16.0286L21.7273 15.1238C21.9091 14.9429 21.9091 14.581 21.7273 14.4L20.5455 13.2238C20.4545 13.1333 20.3636 13.0429 20.1818 13.0429V13.0429ZM18.4545 14.6714L12.9091 20.1V22H14.8182L20.3636 16.481L18.4545 14.6714V14.6714Z" fill="black"/>
</svg>
