<svg width="24" height="24" viewBox="0 0 24 24" fill="none" xmlns="http://www.w3.org/2000/svg">
<path d="M12 2C6.5 2 2 6.50803 2 12.0602C2 17.0803 5.66 21.247 10.44 22V14.9719H7.9V12.0602H10.44V9.84137C10.44 7.32129 11.93 5.93574 14.22 5.93574C15.31 5.93574 16.45 6.12651 16.45 6.12651V8.60643H15.19C13.95 8.60643 13.56 9.37952 13.56 10.1727V12.0602H16.34L15.89 14.9719H13.56V22C15.9164 21.6264 18.0622 20.4192 19.6099 18.5964C21.1576 16.7737 22.0053 14.4555 22 12.0602C22 6.50803 17.5 2 12 2V2Z" fill="black"/>
</svg>
