<svg width="24" height="24" viewBox="0 0 24 24" fill="none" xmlns="http://www.w3.org/2000/svg">
<path d="M10.4745 13.5255C10.9181 13.9475 10.9181 14.6399 10.4745 15.0619C10.0525 15.4838 9.36008 15.4838 8.93812 15.0619C7.92476 14.047 7.35558 12.6714 7.35558 11.2372C7.35558 9.80305 7.92476 8.42748 8.93812 7.41259L12.7682 3.58254C13.7831 2.56917 15.1586 2 16.5928 2C18.027 2 19.4026 2.56917 20.4175 3.58254C21.4308 4.59742 22 5.97299 22 7.40718C22 8.84137 21.4308 10.2169 20.4175 11.2318L18.8054 12.8439C18.8162 11.9567 18.6755 11.0695 18.3726 10.2256L18.8811 9.7063C19.1844 9.40626 19.4252 9.04905 19.5895 8.65534C19.7539 8.26162 19.8385 7.83923 19.8385 7.41259C19.8385 6.98596 19.7539 6.56356 19.5895 6.16985C19.4252 5.77613 19.1844 5.41892 18.8811 5.11889C18.5811 4.81558 18.2239 4.57479 17.8302 4.41046C17.4364 4.24612 17.014 4.16151 16.5874 4.16151C16.1608 4.16151 15.7384 4.24612 15.3447 4.41046C14.951 4.57479 14.5937 4.81558 14.2937 5.11889L10.4745 8.93812C10.1712 9.23816 9.93037 9.59537 9.76604 9.98908C9.60171 10.3828 9.51709 10.8052 9.51709 11.2318C9.51709 11.6585 9.60171 12.0809 9.76604 12.4746C9.93037 12.8683 10.1712 13.2255 10.4745 13.5255V13.5255ZM13.5255 8.93812C13.9475 8.51617 14.6399 8.51617 15.0619 8.93812C16.0752 9.95301 16.6444 11.3286 16.6444 12.7628C16.6444 14.197 16.0752 15.5725 15.0619 16.5874L11.2318 20.4175C10.2169 21.4308 8.84137 22 7.40718 22C5.97299 22 4.59742 21.4308 3.58254 20.4175C2.56917 19.4026 2 18.027 2 16.5928C2 15.1586 2.56917 13.7831 3.58254 12.7682L5.19462 11.1561C5.1838 12.0433 5.32446 12.9305 5.6274 13.7852L5.11889 14.2937C4.81558 14.5937 4.57479 14.951 4.41046 15.3447C4.24612 15.7384 4.16151 16.1608 4.16151 16.5874C4.16151 17.014 4.24612 17.4364 4.41046 17.8302C4.57479 18.2239 4.81558 18.5811 5.11889 18.8811C5.41892 19.1844 5.77613 19.4252 6.16985 19.5895C6.56356 19.7539 6.98596 19.8385 7.41259 19.8385C7.83923 19.8385 8.26162 19.7539 8.65534 19.5895C9.04905 19.4252 9.40626 19.1844 9.7063 18.8811L13.5255 15.0619C13.8288 14.7618 14.0696 14.4046 14.234 14.0109C14.3983 13.6172 14.4829 13.1948 14.4829 12.7682C14.4829 12.3415 14.3983 11.9191 14.234 11.5254C14.0696 11.1317 13.8288 10.7745 13.5255 10.4745C13.4205 10.376 13.3367 10.257 13.2794 10.1249C13.2222 9.99277 13.1926 9.8503 13.1926 9.7063C13.1926 9.56229 13.2222 9.41982 13.2794 9.28769C13.3367 9.15556 13.4205 9.03659 13.5255 8.93812V8.93812Z" fill="black"/>
</svg>
