<svg width="24" height="24" viewBox="0 0 24 24" fill="none" xmlns="http://www.w3.org/2000/svg">
<path d="M12 10.125H13.25V13.875H12V10.125ZM5.75 11.375H7V10.125H5.75V11.375ZM22 4.5V19.5C22 20.163 21.7366 20.7989 21.2678 21.2678C20.7989 21.7366 20.163 22 19.5 22H4.5C3.83696 22 3.20107 21.7366 2.73223 21.2678C2.26339 20.7989 2 20.163 2 19.5V4.5C2 3.83696 2.26339 3.20107 2.73223 2.73223C3.20107 2.26339 3.83696 2 4.5 2H19.5C20.163 2 20.7989 2.26339 21.2678 2.73223C21.7366 3.20107 22 3.83696 22 4.5ZM8.875 10.125C8.875 9.62772 8.67746 9.15081 8.32583 8.79917C7.97419 8.44754 7.49728 8.25 7 8.25H3.875V15.75H5.75V13.25H7C7.49728 13.25 7.97419 13.0525 8.32583 12.7008C8.67746 12.3492 8.875 11.8723 8.875 11.375V10.125ZM15.125 10.125C15.125 9.62772 14.9275 9.15081 14.5758 8.79917C14.2242 8.44754 13.7473 8.25 13.25 8.25H10.125V15.75H13.25C13.7473 15.75 14.2242 15.5525 14.5758 15.2008C14.9275 14.8492 15.125 14.3723 15.125 13.875V10.125ZM20.125 8.25H16.375V15.75H18.25V13.25H20.125V11.375H18.25V10.125H20.125V8.25Z" fill="black"/>
</svg>
