<svg width="24" height="24" viewBox="0 0 24 24" fill="none" xmlns="http://www.w3.org/2000/svg">
<path d="M10.9562 5.74922H14.0875L17.5215 2.30842C17.6185 2.21069 17.7339 2.13312 17.8611 2.08019C17.9883 2.02725 18.1247 2 18.2625 2C18.4003 2 18.5367 2.02725 18.6639 2.08019C18.7911 2.13312 18.9066 2.21069 19.0036 2.30842L21.6965 5.00892C21.8909 5.20428 22 5.46855 22 5.744C22 6.01946 21.8909 6.28373 21.6965 6.47908L19.3063 8.87722H10.9562V10.9625C10.9562 11.2391 10.8463 11.5043 10.6505 11.6998C10.4548 11.8954 10.1893 12.0052 9.91249 12.0052C9.63567 12.0052 9.37019 11.8954 9.17444 11.6998C8.9787 11.5043 8.86873 11.2391 8.86873 10.9625V7.83455C8.86873 7.28148 9.08867 6.75107 9.48015 6.36C9.87164 5.96892 10.4026 5.74922 10.9562 5.74922ZM4.69372 10.9625V15.1332L2.30352 17.5209C2.10912 17.7163 2 17.9805 2 18.256C2 18.5315 2.10912 18.7957 2.30352 18.9911L4.9964 21.6916C5.09343 21.7893 5.20887 21.8669 5.33607 21.9198C5.46326 21.9727 5.59968 22 5.73747 22C5.87526 22 6.01168 21.9727 6.13887 21.9198C6.26607 21.8669 6.38151 21.7893 6.47854 21.6916L10.9562 17.2185H15.1313C15.4081 17.2185 15.6736 17.1087 15.8693 16.9132C16.0651 16.7176 16.175 16.4524 16.175 16.1759V15.1332H17.2188C17.4956 15.1332 17.7611 15.0234 17.9568 14.8278C18.1526 14.6323 18.2625 14.3671 18.2625 14.0905V13.0479H19.3063C19.5831 13.0479 19.8486 12.938 20.0443 12.7425C20.2401 12.547 20.35 12.2817 20.35 12.0052V10.9625H13.0438V12.0052C13.0438 12.5583 12.8238 13.0887 12.4323 13.4798C12.0409 13.8708 11.5099 14.0905 10.9562 14.0905H8.86873C8.31509 14.0905 7.78413 13.8708 7.39264 13.4798C7.00116 13.0887 6.78122 12.5583 6.78122 12.0052V8.87722L4.69372 10.9625Z" fill="black"/>
</svg>
