<svg width="24" height="24" viewBox="0 0 24 24" fill="none" xmlns="http://www.w3.org/2000/svg">
<path d="M15.6364 8.36364H20.6364L15.6364 3.36364V8.36364ZM7.45455 2H16.5455L22 7.45455V16.5455C22 17.0277 21.8084 17.4901 21.4675 17.8311C21.1265 18.1721 20.664 18.3636 20.1818 18.3636H7.45455C6.97233 18.3636 6.50987 18.1721 6.1689 17.8311C5.82792 17.4901 5.63636 17.0277 5.63636 16.5455V3.81818C5.63636 3.33597 5.82792 2.87351 6.1689 2.53253C6.50987 2.19156 6.97233 2 7.45455 2V2ZM3.81818 5.63636V20.1818H20.1818V22H3.81818C3.33597 22 2.87351 21.8084 2.53253 21.4675C2.19156 21.1265 2 20.664 2 20.1818V5.63636H3.81818Z" fill="black"/>
</svg>
