<svg width="24" height="24" viewBox="0 0 24 24" fill="none" xmlns="http://www.w3.org/2000/svg">
<path d="M10.5527 19.1052C12.4503 19.1048 14.2932 18.4696 15.7879 17.3007L20.4875 22.0002L21.9992 20.4886L17.2996 15.789C18.4691 14.2941 19.1048 12.4508 19.1052 10.5527C19.1052 5.83711 15.2684 2.00024 10.5527 2.00024C5.83711 2.00024 2.00024 5.83711 2.00024 10.5527C2.00024 15.2684 5.83711 19.1052 10.5527 19.1052ZM10.5527 4.13837C14.0903 4.13837 16.9671 7.01521 16.9671 10.5527C16.9671 14.0903 14.0903 16.9671 10.5527 16.9671C7.01521 16.9671 4.13837 14.0903 4.13837 10.5527C4.13837 7.01521 7.01521 4.13837 10.5527 4.13837Z" fill="black"/>
</svg>
