<svg width="24" height="24" viewBox="0 0 24 24" fill="none" xmlns="http://www.w3.org/2000/svg">
<path d="M9.42857 2C11.3988 2 13.2882 2.78265 14.6814 4.17578C16.0745 5.56891 16.8571 7.45839 16.8571 9.42857C16.8571 11.2686 16.1829 12.96 15.0743 14.2629L15.3829 14.5714H16.2857L22 20.2857L20.2857 22L14.5714 16.2857V15.3829L14.2629 15.0743C12.9149 16.2249 11.2008 16.857 9.42857 16.8571C7.45839 16.8571 5.56891 16.0745 4.17578 14.6814C2.78265 13.2882 2 11.3988 2 9.42857C2 7.45839 2.78265 5.56891 4.17578 4.17578C5.56891 2.78265 7.45839 2 9.42857 2V2ZM9.42857 4.28571C6.57143 4.28571 4.28571 6.57143 4.28571 9.42857C4.28571 12.2857 6.57143 14.5714 9.42857 14.5714C12.2857 14.5714 14.5714 12.2857 14.5714 9.42857C14.5714 6.57143 12.2857 4.28571 9.42857 4.28571Z" fill="black"/>
</svg>
