<svg width="24" height="24" viewBox="0 0 24 24" fill="none" xmlns="http://www.w3.org/2000/svg">
<path d="M21.9999 5.88235C21.2638 6.21176 20.4703 6.42824 19.6481 6.53176C20.4894 6.03294 21.1395 5.24235 21.4454 4.29176C20.6519 4.76235 19.7724 5.09176 18.8451 5.28C18.0898 4.47059 17.0286 4 15.824 4C13.5774 4 11.7418 5.80706 11.7418 8.03765C11.7418 8.35765 11.7801 8.66824 11.847 8.96C8.44353 8.79059 5.41294 7.18118 3.39573 4.74353C3.042 5.33647 2.84124 6.03294 2.84124 6.76706C2.84124 8.16941 3.55826 9.41176 4.66724 10.1176C3.98847 10.1176 3.35749 9.92941 2.803 9.64706V9.67529C2.803 11.6329 4.21791 13.2706 6.09172 13.6376C5.49012 13.7997 4.85854 13.8223 4.24659 13.7035C4.50626 14.5059 5.01479 15.2079 5.70072 15.711C6.38665 16.2141 7.21547 16.4929 8.07069 16.5082C6.621 17.6381 4.82403 18.2488 2.97508 18.24C2.65003 18.24 2.32499 18.2212 1.99994 18.1835C3.81638 19.3318 5.97699 20 8.29057 20C15.824 20 19.9636 13.8447 19.9636 8.50824C19.9636 8.32941 19.9636 8.16 19.9541 7.98118C20.7571 7.41647 21.4454 6.70118 21.9999 5.88235V5.88235Z" fill="black"/>
</svg>
